<svg width="34" height="42" viewBox="0 0 34 42" fill="none" xmlns="http://www.w3.org/2000/svg">
<path d="M12.5071 23.2885C12.5041 23.2588 12.4948 23.2314 12.4948 23.2016V22.9468C12.4948 22.8256 12.5146 22.706 12.5543 22.5923C12.5543 22.5923 13.1893 21.7422 13.4896 20.7433C13.1607 20.0494 12.8622 19.1859 12.8622 18.3299C12.8622 18.1311 12.8768 17.9387 12.8972 17.7491C12.4686 17.3001 11.8896 17.0459 11.2499 17.0459C9.9292 17.0459 8.8575 18.1235 8.8575 19.7981C8.8575 21.138 9.9479 22.5923 9.9479 22.5923C9.98637 22.706 10.0062 22.8255 10.0062 22.9468V23.2016C10.0062 23.5194 9.82079 23.8086 9.53158 23.941L7.80036 24.6483C7.398 24.8337 7.11169 25.2034 7.03183 25.6384L7.00209 26.0191C6.98694 26.2174 7.05456 26.4127 7.18984 26.5579C7.32452 26.7043 7.51406 26.7865 7.71289 26.7865H10.5426L10.6587 25.2955L10.6662 25.2553C10.8079 24.4734 11.3246 23.8086 12.0464 23.4763L12.5071 23.2885Z" fill="#F45D34"/>
<path d="M26.0751 25.6384C25.9958 25.2034 25.7095 24.8337 25.3071 24.6483L23.5748 23.941C23.2855 23.8086 23.1013 23.5194 23.1013 23.2016V22.9468C23.1013 22.8255 23.1205 22.706 23.1602 22.5923C23.1602 22.5923 24.25 21.138 24.25 19.7981C24.25 18.1235 23.1788 17.0459 21.8558 17.0459C21.2173 17.0459 20.6383 17.3001 20.2085 17.7503C20.2295 17.9392 20.2441 18.131 20.2441 18.3299C20.2441 19.1853 19.9461 20.0488 19.6179 20.7427C19.9176 21.7415 20.5537 22.5923 20.5537 22.5923C20.5922 22.706 20.6126 22.8255 20.6126 22.9468V23.2016C20.6126 23.2314 20.6027 23.2587 20.5998 23.2885L21.0289 23.4634C21.7811 23.8075 22.2977 24.4722 22.4412 25.2541L22.4482 25.2949L22.5637 26.7865H25.3946C25.5934 26.7865 25.7829 26.7043 25.917 26.5579C26.0523 26.4127 26.12 26.2174 26.1048 26.0191L26.0751 25.6384Z" fill="#F45D34"/>
<path d="M20.7281 24.2L18.6324 23.3435C18.2826 23.1825 18.0593 22.8327 18.0593 22.449V22.14C18.0593 21.9942 18.0826 21.849 18.131 21.7108C18.131 21.7108 19.4488 19.9522 19.4488 18.33C19.4488 16.3032 18.1526 15 16.5532 15C14.9543 15 13.6575 16.3032 13.6575 18.33C13.6575 19.9522 14.9765 21.7108 14.9765 21.7108C15.0237 21.849 15.0482 21.9942 15.0482 22.14V22.449C15.0482 22.8327 14.8231 23.1825 14.4738 23.3435L12.3782 24.2C11.8913 24.4234 11.5444 24.8712 11.4488 25.3983L11.3409 26.7866H16.5532H21.7654L21.6587 25.3983C21.5619 24.8712 21.215 24.4234 20.7281 24.2Z" fill="#F45D34"/>
<path d="M29.0245 8.78733C26.7814 6.5442 23.9116 4.92146 20.6959 4.21166L20.9166 0L12.6061 4.37871L10.3865 5.55363L9.9747 5.76937L10.6312 6.12143L13.7331 7.79123L20.3197 11.3355L20.5048 7.85163C22.8024 8.46502 24.8487 9.68303 26.4895 11.3176C28.9232 13.7512 30.4203 17.0986 30.4203 20.81C30.4203 22.7127 30.0267 24.515 29.3169 26.1495L32.5984 27.5746C33.4988 25.5048 34 23.2146 34 20.81C34.0063 16.1198 32.0973 11.8602 29.0245 8.78733Z" fill="#F45D34"/>
<path d="M20.2723 33.8277L13.6799 30.2826L13.4952 33.7673C11.198 33.1531 9.14548 31.9359 7.51095 30.3015C5.0768 27.8669 3.57957 24.5203 3.57957 20.8098C3.57957 18.9055 3.97333 17.1095 4.68313 15.4695L1.40156 14.0444C0.501218 16.1197 0 18.4114 0 20.8098C0 25.4984 1.90269 29.7642 4.9756 32.8317C7.21872 35.0747 10.0885 36.6967 13.3037 37.4002L13.083 41.619L21.388 37.2394L23.6198 36.0644L24.0252 35.8496L23.375 35.4975L20.2723 33.8277Z" fill="#F45D34"/>
</svg>
