<svg width="27" height="25" viewBox="0 0 27 25" fill="none" xmlns="http://www.w3.org/2000/svg">
<path d="M23.5796 0H3.4203C1.53921 0 0 1.54839 0 3.44078V17.4261C0 19.3185 1.53921 20.8669 3.4203 20.8669H11.6043L15.5425 24.8286C15.7089 24.9959 15.9592 25.046 16.1765 24.9555C16.3939 24.8648 16.5355 24.6515 16.5355 24.4148V20.8669H23.5796C25.4608 20.8669 27 19.3185 27 17.4261V3.44078C27 1.54839 25.4608 0 23.5796 0ZM5.0625 6.04167V4.375H21.9375V6.04167H5.0625ZM5.0625 11.25V9.58333H21.9375V11.25H5.0625ZM17.0859 14.7917V16.4583H5.0625V14.7917H17.0859Z" fill="#F45D34"/>
</svg>
