<svg width="27" height="27" viewBox="0 0 27 27" fill="none" xmlns="http://www.w3.org/2000/svg">
<path d="M11.2697 17.9749C11.0528 18.4382 10.7504 18.7326 10.4322 18.9215C10.2829 19.0106 10.1285 19.0731 9.9812 19.1155L9.47058 17.2295H5.84662L7.10921 23.6106C7.1868 24.0006 7.52864 24.2814 7.9265 24.2814H10.2922C10.5515 24.2814 10.7957 24.1608 10.9537 23.9554C11.111 23.7493 11.1641 23.4813 11.0959 23.2307L10.2118 19.9658C10.2794 19.9471 10.3483 19.9256 10.4173 19.9004C10.8798 19.7309 11.3588 19.4142 11.7337 18.9108C12.0059 18.5452 12.2178 18.0842 12.3377 17.5261C12.0576 17.4737 11.7675 17.4255 11.4673 17.3825C11.4169 17.6058 11.3494 17.8026 11.2697 17.9749Z" fill="#F45D34"/>
<path d="M21.5938 2C20.9287 2 19.8557 3.13477 19.3932 3.598C18.991 4.00018 15.8252 7.1509 7.79297 7.1509V16.5441C15.8252 16.5441 18.991 19.6948 19.3932 20.0978C19.8558 20.5603 20.9287 21.695 21.5938 21.695C22.2588 21.695 22.7982 21.1564 22.7982 20.4906V3.20371C22.7982 2.53866 22.2588 2 21.5938 2Z" fill="#F45D34"/>
<path d="M6.697 7.15088C4.10287 7.15088 2 9.25301 2 11.8478C2 14.442 4.10287 16.5441 6.697 16.5441V7.15088Z" fill="#F45D34"/>
<path d="M23.7706 10.084V13.6103C24.7445 13.6103 25.5337 12.8218 25.5337 11.8479C25.5337 10.8733 24.7444 10.084 23.7706 10.084Z" fill="#F45D34"/>
</svg>
