<svg width="28" height="28" viewBox="0 0 28 28" fill="none" xmlns="http://www.w3.org/2000/svg">
<path d="M27.3143 11.4846L24.2598 11.3435C23.9808 11.3309 23.7344 11.1578 23.6284 10.9003L22.999 9.38578C22.8931 9.12722 22.9445 8.83098 23.1333 8.62486L25.1933 6.36452C25.4513 6.0808 25.4419 5.64237 25.1703 5.37019L22.6309 2.83035C22.3582 2.55871 21.9198 2.54821 21.6355 2.80781L19.3762 4.86778C19.1696 5.05607 18.8728 5.10851 18.6147 5.001L17.1002 4.37275C16.8422 4.26633 16.6701 4.0198 16.6575 3.74029L16.516 0.687038C16.498 0.30264 16.1813 0 15.7974 0H12.2039C11.82 0 11.5022 0.30264 11.4844 0.686983L11.3438 3.74023C11.3312 4.01974 11.1592 4.26622 10.9012 4.37269L9.38656 5.001C9.1275 5.10851 8.83065 5.05607 8.62508 4.86778L6.36474 2.80781C6.08046 2.54827 5.64202 2.55822 5.36934 2.83035L2.83096 5.37019C2.55829 5.64237 2.54888 6.0808 2.80789 6.36452L4.8679 8.62486C5.05669 8.83098 5.10706 9.12722 5.00003 9.38578L4.37281 10.9003C4.26583 11.1578 4.02039 11.3309 3.74038 11.3435L0.687 11.4846C0.30314 11.5019 0 11.8191 0 12.2035V15.7965C0 16.1803 0.30314 16.4981 0.687 16.5155L3.74038 16.6565C4.02039 16.669 4.26583 16.8421 4.37281 17.0997L5.00003 18.6142C5.10706 18.8727 5.05669 19.169 4.8679 19.3751L2.80789 21.6344C2.54779 21.9197 2.55829 22.3576 2.82993 22.6298L5.37137 25.1696C5.64301 25.4418 6.08041 25.4512 6.36572 25.1927L8.62502 23.1322C8.8306 22.9439 9.12854 22.892 9.38651 22.9991L10.9011 23.6268C11.1591 23.7337 11.3311 23.9803 11.3437 24.2598L11.4843 27.313C11.5021 27.6969 11.8199 28 12.2038 28H15.7973C16.1812 28 16.498 27.6969 16.5158 27.313L16.6574 24.2598C16.67 23.9803 16.842 23.7337 17.1 23.6268L18.6146 22.9991C18.8726 22.892 19.1695 22.9439 19.3761 23.1322L21.6354 25.1927C21.9196 25.4512 22.3581 25.4418 22.6307 25.1696L25.1701 22.6298C25.4418 22.3576 25.4512 21.9197 25.1932 21.6344L23.1331 19.3751C22.9444 19.169 22.8918 18.8727 22.9989 18.6142L23.6282 17.0997C23.7342 16.8421 23.9806 16.669 24.2597 16.6565L27.3141 16.5155C27.698 16.4981 28 16.1803 28 15.7965V12.2035C28.0002 11.8191 27.6981 11.5019 27.3143 11.4846ZM14.0007 18.5728C11.476 18.5728 9.42747 16.5254 9.42747 14.0003C9.42747 11.4746 11.476 9.42723 14.0007 9.42723C16.5253 9.42723 18.5727 11.4746 18.5727 14.0003C18.5727 16.5254 16.5253 18.5728 14.0007 18.5728Z" fill="#F45D34"/>
</svg>
