<svg width="29" height="29" viewBox="0 0 29 29" fill="none" xmlns="http://www.w3.org/2000/svg">
<path d="M23.6643 0C23.135 0 22.6729 0.357855 22.5406 0.87017L21.3921 5.32065H1.15992C0.795495 5.32065 0.45214 5.49199 0.23311 5.78318C0.014081 6.07454 -0.0555303 6.45182 0.04529 6.80237L3.37723 18.364C3.52031 18.8608 3.97519 19.2031 4.49203 19.2031H17.8097L17.308 21.1472H4.59353V23.1938H17.9944C18.5235 23.1938 18.9856 22.8356 19.1179 22.3231L24.3505 2.04643H28.0602V0H23.6643ZM19.3501 13.2342L18.3378 17.1566H15.7815V13.2342H19.3501ZM20.8639 7.36713L19.8781 11.1877H15.7815V7.36713H20.8639ZM13.735 13.2342V17.1566H9.3689V13.2342H13.735ZM13.735 7.36713V11.1877H9.3689V7.36713H13.735ZM7.65014 7.36713V11.1877H3.4388L2.33793 7.36713H7.65014ZM7.65014 13.2342V17.1566H5.15869L4.02843 13.2342H7.65014Z" fill="#F45D34"/>
<path d="M6.54806 24.7344C5.40222 24.7344 4.47314 25.6634 4.47314 26.8097C4.47314 27.9558 5.40216 28.8847 6.54806 28.8847C7.69447 28.8847 8.62298 27.9558 8.62298 26.8097C8.62298 25.6634 7.69452 24.7344 6.54806 24.7344Z" fill="#F45D34"/>
<path d="M16.5042 24.8501C15.3578 24.8501 14.4293 25.7795 14.4293 26.925C14.4293 28.0714 15.3578 29.0003 16.5042 29.0003C17.6501 29.0003 18.5792 28.0715 18.5792 26.925C18.5792 25.7795 17.6501 24.8501 16.5042 24.8501Z" fill="#F45D34"/>
</svg>
