<svg width="22" height="31" viewBox="0 0 22 31" fill="none" xmlns="http://www.w3.org/2000/svg">
<path d="M19.7035 13.2139V14.8311C19.7028 17.2533 18.7212 19.442 17.1291 21.0361C15.5349 22.6281 13.3463 23.6104 10.924 23.6111C8.50106 23.6104 6.31246 22.6281 4.71832 21.0361C3.12623 19.4419 2.14391 17.2533 2.14325 14.8311V13.2139H0V14.8311C0.0020586 20.3713 4.14415 24.9451 9.49524 25.6498V31.0002H12.3529V25.6498C17.7033 24.9451 21.8446 20.3713 21.8468 14.8311V13.2139H19.7035Z" fill="#F45D34"/>
<path d="M10.924 19.6819C13.6002 19.6811 15.7742 17.5065 15.7748 14.831V4.85158C15.7742 2.17534 13.6002 0.000726566 10.924 0C8.24772 0.000726566 6.07311 2.17534 6.07239 4.85158V14.831C6.07311 17.5065 8.24772 19.6811 10.924 19.6819Z" fill="#F45D34"/>
</svg>
