<svg width="33" height="24" viewBox="0 0 33 24" fill="none" xmlns="http://www.w3.org/2000/svg">
<path d="M8.45464 23.9998H32.925L29.9779 19.4696H26.6611L24.7884 5.84725L22.1853 6.20403C21.828 5.90153 21.1313 5.35814 19.9046 4.59327C18.7562 3.87253 17.4306 3.49878 16.3632 3.49878C13.2531 3.49878 9.75273 3.49878 9.75273 3.49878L8.79412 2.92773L4.84833 8.79069L6.65952 9.89497L9.02935 13.2635C9.29397 13.6404 9.65119 13.9464 10.0655 14.1468C10.0655 14.1468 11.67 14.905 12.9511 15.5437C13.4134 15.775 13.957 15.9789 14.5413 16.1625L14.9966 19.4695H11.3973L8.45464 23.9998ZM17.7467 17.0356C19.5276 17.5118 21.0261 15.7001 19.5615 14.48C17.6576 12.8929 17.597 12.8857 17.597 12.8857C16.9645 12.3726 16.5975 11.6046 16.5912 10.789C16.5877 9.97689 16.9441 9.20496 17.5695 8.68156L18.2465 8.1212L23.6258 7.37994L25.2882 19.4694L25.5359 21.2806H16.6179L16.3703 19.4694L15.972 16.5736C16.5734 16.7336 17.1819 16.8828 17.7467 17.0356Z" fill="#F45D34"/>
<path d="M4.87945 0L0 7.30806L3.48876 9.55666L8.41722 2.24951L4.87945 0Z" fill="#F45D34"/>
</svg>
