<svg width="32" height="22" viewBox="0 0 32 22" fill="none" xmlns="http://www.w3.org/2000/svg">
<path d="M13.0842 0.033617C9.92748 0.0792732 5.90329 0.287983 4.42927 0.477127C3.1444 0.646704 2.37478 0.985857 1.67038 1.69025C1.21383 2.14681 0.842061 2.76642 0.665962 3.37298C0.196363 4.9644 -0.103658 9.48428 0.0333086 12.8497C0.137664 15.4456 0.346374 17.4479 0.633351 18.498C1.06382 20.1155 2.25086 21.1721 3.95967 21.4721C6.11852 21.8438 13.2734 22.0917 18.5563 21.9678C24.0741 21.8438 26.8656 21.6417 27.9222 21.2829C28.6788 21.022 29.2984 20.5851 29.7615 19.9785C30.3159 19.2545 30.5115 18.661 30.7594 16.9913C31.0007 15.3412 31.0529 14.2846 31.0529 11.0105C31.0529 7.73633 31.0007 6.67974 30.7594 5.02962C30.5768 3.79692 30.4528 3.28167 30.205 2.7599C29.7354 1.79461 28.9397 1.08369 27.9222 0.738014C26.8917 0.392338 24.0219 0.177105 18.7585 0.0531826C17.2715 0.0205727 15.6148 -0.00551605 15.0735 0.00100517C14.5387 0.0140495 13.6386 0.0205727 13.0842 0.033617ZM14.1408 7.26021C14.9757 7.7559 15.8953 8.29072 16.1823 8.4603C16.4692 8.62987 17.565 9.26252 18.6085 9.87561C19.6586 10.4822 20.5195 10.9909 20.5195 11.0105C20.5195 11.03 20.1152 11.2779 19.6195 11.5583C19.1303 11.8453 18.5237 12.1975 18.2694 12.3475C18.0215 12.4975 17.5193 12.7845 17.1606 12.9932C16.0062 13.665 15.6866 13.8542 14.1408 14.7607C13.306 15.2499 12.5755 15.6673 12.5233 15.6869C12.445 15.713 12.432 15.0738 12.432 11.0105C12.432 6.94714 12.445 6.30797 12.5233 6.33406C12.5755 6.35363 13.306 6.77105 14.1408 7.26021Z" fill="#F45D34"/>
</svg>
