<svg width="30" height="28" viewBox="0 0 30 28" fill="none" xmlns="http://www.w3.org/2000/svg">
<path d="M14.9335 0C23.9082 0 30 4.57582 30 11.6944C30 16.0739 28.1792 19.5835 24.6616 21.8414C24.427 21.9921 24.1502 22.015 24.2541 22.4487C24.6737 24.2027 25.403 27.3282 25.403 27.3282C25.4339 27.4606 25.3842 27.5988 25.2763 27.6815C25.1685 27.7636 25.0224 27.7757 24.9025 27.7112C24.9025 27.7112 19.7542 24.6605 19.0676 24.2792C17.466 23.3637 16.0864 23.1862 15.0505 23.1862C7.93248 23.1862 0 20.3381 0 11.6179C0 4.8549 5.45074 0 14.9335 0Z" fill="#F45D34"/>
</svg>
