<svg width="135" height="169" viewBox="0 0 135 169" fill="none" xmlns="http://www.w3.org/2000/svg">
<path d="M121.855 70.0693V75.2268H109.658V42.6263C109.658 19.0828 90.5652 0 67.0263 0C43.4825 0 24.3948 19.0828 24.3948 42.6266V75.2271H12.1974V70.0696H0V89.5185C0.0102324 124.182 26.401 152.744 60.162 156.194V169H73.886V156.194C107.647 152.744 134.043 124.182 134.053 89.5182V70.0693H121.855ZM33.5442 42.6266C33.5442 30.2797 40.2798 19.5056 50.2544 13.6982V30.2434C50.2544 32.7705 52.2969 34.818 54.8289 34.818C57.3511 34.818 59.3985 32.7705 59.3985 30.2434V10.4183C59.3985 10.2945 59.3728 10.1862 59.3675 10.0674C61.8329 9.48975 64.3857 9.14944 67.0263 9.14944C69.6669 9.14944 72.2198 9.48975 74.6851 10.0674C74.6696 10.1859 74.6491 10.2945 74.6491 10.4183V30.2437C74.6491 32.7708 76.6966 34.8183 79.2237 34.8183C81.7458 34.8183 83.7983 32.7708 83.7983 30.2437V13.6982C93.7729 19.5056 100.508 30.2794 100.508 42.6266V55.4119H33.5442V42.6266ZM121.855 89.5182C121.85 104.645 115.713 118.317 105.769 128.266C95.8256 138.21 82.1531 144.347 67.0263 144.347C51.8995 144.347 38.227 138.21 28.2732 128.266C18.3348 118.317 12.1974 104.645 12.1974 89.5182V87.4294H24.3948V89.5182C24.3948 113.062 43.4825 132.145 67.0263 132.145C90.5652 132.145 109.658 113.062 109.658 89.5182V87.4294H121.855V89.5182Z" fill="#F45D34"/>
</svg>
