<svg width="32" height="26" viewBox="0 0 32 26" fill="none" xmlns="http://www.w3.org/2000/svg">
<path d="M23.2134 8.2935C24.3233 8.2935 25.3903 8.44169 26.393 8.70875C25.3046 3.76275 19.8651 0 13.3023 0C5.9555 0 0 4.71088 0 10.5231C0 14.2288 2.42375 17.4842 6.0835 19.3586L4.02087 23.9708C7.90144 23.5396 11.7057 22.5198 14.6097 21.5789C13.4904 20.2081 12.8582 18.5642 12.8582 16.8123C12.8582 12.115 17.5036 8.2935 23.2134 8.2935Z" fill="url(#paint0_linear_38_3185)"/>
<path d="M32 16.8121C32 12.9729 28.0658 9.86133 23.2135 9.86133C18.3605 9.86133 14.4263 12.9729 14.4263 16.8121C14.4263 19.7443 16.7223 22.25 19.9686 23.2711C21.7348 23.9571 25.4865 25.2667 29.3441 25.6955L27.9813 22.6488C30.3989 21.4109 32 19.2603 32 16.8121Z" fill="url(#paint1_linear_38_3185)"/>
<defs>
<linearGradient id="paint0_linear_38_3185" x1="-6.21102e-07" y1="-0.932875" x2="29.8924" y2="21.091" gradientUnits="userSpaceOnUse">
<stop stop-color="#FC923B"/>
<stop offset="1" stop-color="#F45D34"/>
</linearGradient>
<linearGradient id="paint1_linear_38_3185" x1="14.4263" y1="9.24511" x2="34.2181" y2="23.944" gradientUnits="userSpaceOnUse">
<stop stop-color="#FC923B"/>
<stop offset="1" stop-color="#F45D34"/>
</linearGradient>
</defs>
</svg>
